<svg width="55" height="63" viewBox="0 0 55 63" fill="none" xmlns="http://www.w3.org/2000/svg">
<path fill-rule="evenodd" clip-rule="evenodd" d="M8 4C8 1.79086 9.79086 0 12 0H39.1982L55 15.7046V59C55 61.2091 53.2091 63 51 63H12C9.79086 63 8 61.2091 8 59V4Z" fill="#E8EAEC"/>
<rect y="30" width="47" height="23" rx="2" fill="#F66D53"/>
<path fill-rule="evenodd" clip-rule="evenodd" d="M39.1982 0V10.3247C39.1982 13.0861 41.4368 15.3247 44.1982 15.3247H55L39.1982 0Z" fill="#BEC4C9"/>
<path d="M12.913 45V37.3H16.246C16.9353 37.3 17.5293 37.4137 18.028 37.641C18.5267 37.861 18.9117 38.18 19.183 38.598C19.4543 39.016 19.59 39.5147 19.59 40.094C19.59 40.666 19.4543 41.161 19.183 41.579C18.9117 41.997 18.5267 42.3197 18.028 42.547C17.5293 42.767 16.9353 42.877 16.246 42.877H13.903L14.695 42.074V45H12.913ZM14.695 42.272L13.903 41.425H16.147C16.697 41.425 17.1077 41.3077 17.379 41.073C17.6503 40.8383 17.786 40.512 17.786 40.094C17.786 39.6687 17.6503 39.3387 17.379 39.104C17.1077 38.8693 16.697 38.752 16.147 38.752H13.903L14.695 37.905V42.272ZM20.9062 45V37.3H24.4042C25.2402 37.3 25.9772 37.4613 26.6152 37.784C27.2532 38.0993 27.7519 38.543 28.1112 39.115C28.4706 39.687 28.6502 40.3653 28.6502 41.15C28.6502 41.9273 28.4706 42.6057 28.1112 43.185C27.7519 43.757 27.2532 44.2043 26.6152 44.527C25.9772 44.8423 25.2402 45 24.4042 45H20.9062ZM22.6882 43.537H24.3162C24.8296 43.537 25.2732 43.4417 25.6472 43.251C26.0286 43.053 26.3219 42.7743 26.5272 42.415C26.7399 42.0557 26.8462 41.634 26.8462 41.15C26.8462 40.6587 26.7399 40.237 26.5272 39.885C26.3219 39.5257 26.0286 39.2507 25.6472 39.06C25.2732 38.862 24.8296 38.763 24.3162 38.763H22.6882V43.537ZM31.6881 40.765H35.3841V42.195H31.6881V40.765ZM31.8201 45H30.0381V37.3H35.8571V38.73H31.8201V45Z" fill="white"/>
</svg>
