<svg width="115" height="30" viewBox="0 0 115 30" fill="none" xmlns="http://www.w3.org/2000/svg">
<path fill-rule="evenodd" clip-rule="evenodd" d="M99.6508 30C101.851 30 103.892 29.6381 105.775 28.9142C107.657 28.1903 109.28 27.1649 110.646 25.8378C112.011 24.5107 113.078 22.9156 113.847 21.0523C114.616 19.189 115 17.1314 115 14.8794C115 12.6005 114.616 10.5429 113.847 8.70643C113.078 6.86997 112.011 5.30831 110.646 4.02145C109.28 2.73458 107.657 1.74263 105.775 1.04558C103.892 0.348526 101.851 0 99.6508 0C97.4504 0 95.4158 0.348526 93.5469 1.04558C91.6779 1.74263 90.0608 2.73458 88.6955 4.02145C87.3303 5.30831 86.2633 6.86997 85.4945 8.70643C84.7257 10.5429 84.3413 12.6005 84.3413 14.8794C84.3413 17.1314 84.7257 19.189 85.4945 21.0523C86.2633 22.9156 87.3303 24.5107 88.6955 25.8378C90.0608 27.1649 91.6779 28.1903 93.5469 28.9142C95.4158 29.6381 97.4504 30 99.6508 30ZM14.5539 29.3968C13.255 29.7721 11.9162 29.9598 10.5377 29.9598C8.52294 29.9598 6.57446 29.6046 4.69225 28.8941C2.81005 28.1836 1.24597 27.1716 0 25.8579L4.45367 21.2735C5.14292 22.1314 6.05089 22.8485 7.17756 23.4249C8.30423 24.0013 9.42427 24.2895 10.5377 24.2895C11.0414 24.2895 11.5318 24.2359 12.009 24.1287C12.4862 24.0214 12.9037 23.8472 13.2616 23.6059C13.6195 23.3646 13.9044 23.0429 14.1165 22.6408C14.3286 22.2386 14.4346 21.756 14.4346 21.193C14.4346 20.6568 14.3021 20.2011 14.037 19.8257C13.7719 19.4504 13.3941 19.1086 12.9037 18.8003C12.4133 18.492 11.8035 18.2105 11.0745 17.9558C10.3455 17.7011 9.51706 17.4263 8.58921 17.1314C7.68787 16.8365 6.80642 16.4879 5.94485 16.0858C5.08328 15.6836 4.31449 15.1676 3.63849 14.5375C2.96248 13.9075 2.41903 13.1434 2.00813 12.2453C1.59722 11.3472 1.39177 10.2547 1.39177 8.96783C1.39177 7.38606 1.70989 6.03217 2.34613 4.90617C2.98237 3.78016 3.81743 2.85523 4.85131 2.13137C5.8852 1.40751 7.05164 0.878016 8.35062 0.542895C9.64961 0.207775 10.9618 0.0402145 12.2873 0.0402145C13.8779 0.0402145 15.5017 0.335121 17.1585 0.924933C18.8154 1.51475 20.2668 2.38606 21.5128 3.53887L17.1784 8.16354C16.5952 7.41287 15.833 6.81635 14.8919 6.37399C13.9508 5.93164 13.0429 5.71046 12.168 5.71046C11.7174 5.71046 11.2601 5.75067 10.7962 5.8311C10.3322 5.91153 9.91471 6.06568 9.54357 6.29357C9.17243 6.52145 8.86094 6.81635 8.60909 7.17828C8.35725 7.54021 8.23133 8.00268 8.23133 8.56568C8.23133 9.04826 8.33074 9.4504 8.52956 9.77212C8.72839 10.0938 9.02 10.3753 9.40439 10.6166C9.78878 10.8579 10.2461 11.0791 10.7763 11.2802C11.3065 11.4812 11.903 11.689 12.5657 11.9035C13.5201 12.2252 14.5142 12.5804 15.5481 12.9692C16.5819 13.3579 17.5231 13.874 18.3714 14.5174C19.2197 15.1609 19.9222 15.9584 20.4789 16.9102C21.0356 17.8619 21.314 19.0483 21.314 20.4692C21.314 22.1046 21.0157 23.5188 20.4193 24.7118C19.8228 25.9048 19.0209 26.8901 18.0135 27.6676C17.0061 28.445 15.8529 29.0214 14.5539 29.3968ZM31.971 23.6461L29.9032 29.2359H22.5069L34.3171 0.764075H40.9181L52.6089 29.2359H45.0536L42.8665 23.6461H31.971ZM40.9976 18.1367H33.9194L37.4983 8.36461L40.9976 18.1367ZM61.9139 17.3324V29.2359H55.1141V0.764075H61.9139V11.5416H72.889V0.764075H79.6888V29.2359H72.889V17.3324H61.9139ZM96.39 23.063C97.3709 23.5054 98.4578 23.7265 99.6508 23.7265C100.844 23.7265 101.931 23.5054 102.911 23.063C103.892 22.6206 104.741 22.0107 105.456 21.2332C106.172 20.4558 106.729 19.5241 107.127 18.4383C107.524 17.3525 107.723 16.1662 107.723 14.8794C107.723 13.6461 107.524 12.4933 107.127 11.4209C106.729 10.3485 106.179 9.43029 105.476 8.66622C104.774 7.90214 103.925 7.29893 102.931 6.85657C101.937 6.41421 100.844 6.19303 99.6508 6.19303C98.4578 6.19303 97.3709 6.41421 96.39 6.85657C95.4092 7.29893 94.5609 7.90214 93.8451 8.66622C93.1293 9.43029 92.5792 10.3485 92.1948 11.4209C91.8105 12.4933 91.6183 13.6461 91.6183 14.8794C91.6183 16.1662 91.8171 17.3525 92.2147 18.4383C92.6124 19.5241 93.1625 20.4558 93.865 21.2332C94.5675 22.0107 95.4092 22.6206 96.39 23.063Z" fill="white"/>
</svg>
