<svg width="55" height="63" viewBox="0 0 55 63" fill="none" xmlns="http://www.w3.org/2000/svg">
<path fill-rule="evenodd" clip-rule="evenodd" d="M8 4C8 1.79086 9.79086 0 12 0H39.1982L55 15.7046V59C55 61.2091 53.2091 63 51 63H12C9.79086 63 8 61.2091 8 59V4Z" fill="#E8EAEC"/>
<rect y="30" width="47" height="23" rx="2" fill="#5399F6"/>
<path fill-rule="evenodd" clip-rule="evenodd" d="M39.1982 0V10.3247C39.1982 13.0861 41.4368 15.3247 44.1982 15.3247H55L39.1982 0Z" fill="#BEC4C9"/>
<path d="M8.913 44V36.3H12.411C13.247 36.3 13.984 36.4613 14.622 36.784C15.26 37.0993 15.7587 37.543 16.118 38.115C16.4773 38.687 16.657 39.3653 16.657 40.15C16.657 40.9273 16.4773 41.6057 16.118 42.185C15.7587 42.757 15.26 43.2043 14.622 43.527C13.984 43.8423 13.247 44 12.411 44H8.913ZM10.695 42.537H12.323C12.8363 42.537 13.28 42.4417 13.654 42.251C14.0353 42.053 14.3287 41.7743 14.534 41.415C14.7467 41.0557 14.853 40.634 14.853 40.15C14.853 39.6587 14.7467 39.237 14.534 38.885C14.3287 38.5257 14.0353 38.2507 13.654 38.06C13.28 37.862 12.8363 37.763 12.323 37.763H10.695V42.537ZM21.7849 44.132C21.1762 44.132 20.6116 44.033 20.0909 43.835C19.5776 43.637 19.1302 43.3583 18.7489 42.999C18.3749 42.6397 18.0816 42.218 17.8689 41.734C17.6636 41.25 17.5609 40.722 17.5609 40.15C17.5609 39.578 17.6636 39.05 17.8689 38.566C18.0816 38.082 18.3786 37.6603 18.7599 37.301C19.1412 36.9417 19.5886 36.663 20.1019 36.465C20.6152 36.267 21.1726 36.168 21.7739 36.168C22.3826 36.168 22.9399 36.267 23.4459 36.465C23.9592 36.663 24.4029 36.9417 24.7769 37.301C25.1582 37.6603 25.4552 38.082 25.6679 38.566C25.8806 39.0427 25.9869 39.5707 25.9869 40.15C25.9869 40.722 25.8806 41.2537 25.6679 41.745C25.4552 42.229 25.1582 42.6507 24.7769 43.01C24.4029 43.362 23.9592 43.637 23.4459 43.835C22.9399 44.033 22.3862 44.132 21.7849 44.132ZM21.7739 42.614C22.1186 42.614 22.4339 42.5553 22.7199 42.438C23.0132 42.3207 23.2699 42.152 23.4899 41.932C23.7099 41.712 23.8786 41.4517 23.9959 41.151C24.1206 40.8503 24.1829 40.5167 24.1829 40.15C24.1829 39.7833 24.1206 39.4497 23.9959 39.149C23.8786 38.8483 23.7099 38.588 23.4899 38.368C23.2772 38.148 23.0242 37.9793 22.7309 37.862C22.4376 37.7447 22.1186 37.686 21.7739 37.686C21.4292 37.686 21.1102 37.7447 20.8169 37.862C20.5309 37.9793 20.2779 38.148 20.0579 38.368C19.8379 38.588 19.6656 38.8483 19.5409 39.149C19.4236 39.4497 19.3649 39.7833 19.3649 40.15C19.3649 40.5093 19.4236 40.843 19.5409 41.151C19.6656 41.4517 19.8342 41.712 20.0469 41.932C20.2669 42.152 20.5236 42.3207 20.8169 42.438C21.1102 42.5553 21.4292 42.614 21.7739 42.614ZM31.0551 44.132C30.4611 44.132 29.9075 44.0367 29.3941 43.846C28.8881 43.648 28.4481 43.3693 28.0741 43.01C27.7001 42.6507 27.4068 42.229 27.1941 41.745C26.9888 41.261 26.8861 40.7293 26.8861 40.15C26.8861 39.5707 26.9888 39.039 27.1941 38.555C27.4068 38.071 27.7001 37.6493 28.0741 37.29C28.4555 36.9307 28.8991 36.6557 29.4051 36.465C29.9111 36.267 30.4648 36.168 31.0661 36.168C31.7335 36.168 32.3348 36.2853 32.8701 36.52C33.4128 36.7473 33.8675 37.0847 34.2341 37.532L33.0901 38.588C32.8261 38.2873 32.5328 38.0637 32.2101 37.917C31.8875 37.763 31.5355 37.686 31.1541 37.686C30.7948 37.686 30.4648 37.7447 30.1641 37.862C29.8635 37.9793 29.6031 38.148 29.3831 38.368C29.1631 38.588 28.9908 38.8483 28.8661 39.149C28.7488 39.4497 28.6901 39.7833 28.6901 40.15C28.6901 40.5167 28.7488 40.8503 28.8661 41.151C28.9908 41.4517 29.1631 41.712 29.3831 41.932C29.6031 42.152 29.8635 42.3207 30.1641 42.438C30.4648 42.5553 30.7948 42.614 31.1541 42.614C31.5355 42.614 31.8875 42.5407 32.2101 42.394C32.5328 42.24 32.8261 42.009 33.0901 41.701L34.2341 42.757C33.8675 43.2043 33.4128 43.5453 32.8701 43.78C32.3348 44.0147 31.7298 44.132 31.0551 44.132Z" fill="white"/>
</svg>
