<svg width="55" height="63" viewBox="0 0 55 63" fill="none" xmlns="http://www.w3.org/2000/svg">
<path fill-rule="evenodd" clip-rule="evenodd" d="M8 4C8 1.79086 9.79086 0 12 0H39.1982L55 15.7046V59C55 61.2091 53.2091 63 51 63H12C9.79086 63 8 61.2091 8 59V4Z" fill="#E8EAEC"/>
<rect y="30" width="47" height="23" rx="2" fill="#A5837C"/>
<path fill-rule="evenodd" clip-rule="evenodd" d="M39.1982 0V10.3247C39.1982 13.0861 41.4368 15.3247 44.1982 15.3247H55L39.1982 0Z" fill="#BEC4C9"/>
<path d="M14.913 45V37.3H18.246C18.9353 37.3 19.5293 37.4137 20.028 37.641C20.5267 37.861 20.9117 38.18 21.183 38.598C21.4543 39.016 21.59 39.5147 21.59 40.094C21.59 40.666 21.4543 41.161 21.183 41.579C20.9117 41.997 20.5267 42.3197 20.028 42.547C19.5293 42.767 18.9353 42.877 18.246 42.877H15.903L16.695 42.074V45H14.913ZM16.695 42.272L15.903 41.425H18.147C18.697 41.425 19.1077 41.3077 19.379 41.073C19.6503 40.8383 19.786 40.512 19.786 40.094C19.786 39.6687 19.6503 39.3387 19.379 39.104C19.1077 38.8693 18.697 38.752 18.147 38.752H15.903L16.695 37.905V42.272ZM22.9062 45V37.3H24.6882V45H22.9062ZM30.2446 45.132C29.6506 45.132 29.0969 45.0367 28.5836 44.846C28.0776 44.648 27.6376 44.3693 27.2636 44.01C26.8896 43.6507 26.5963 43.229 26.3836 42.745C26.1783 42.261 26.0756 41.7293 26.0756 41.15C26.0756 40.5707 26.1783 40.039 26.3836 39.555C26.5963 39.071 26.8896 38.6493 27.2636 38.29C27.6449 37.9307 28.0886 37.6557 28.5946 37.465C29.1006 37.267 29.6543 37.168 30.2556 37.168C30.9229 37.168 31.5243 37.2853 32.0596 37.52C32.6023 37.7473 33.0569 38.0847 33.4236 38.532L32.2796 39.588C32.0156 39.2873 31.7223 39.0637 31.3996 38.917C31.0769 38.763 30.7249 38.686 30.3436 38.686C29.9843 38.686 29.6543 38.7447 29.3536 38.862C29.0529 38.9793 28.7926 39.148 28.5726 39.368C28.3526 39.588 28.1803 39.8483 28.0556 40.149C27.9383 40.4497 27.8796 40.7833 27.8796 41.15C27.8796 41.5167 27.9383 41.8503 28.0556 42.151C28.1803 42.4517 28.3526 42.712 28.5726 42.932C28.7926 43.152 29.0529 43.3207 29.3536 43.438C29.6543 43.5553 29.9843 43.614 30.3436 43.614C30.7249 43.614 31.0769 43.5407 31.3996 43.394C31.7223 43.24 32.0156 43.009 32.2796 42.701L33.4236 43.757C33.0569 44.2043 32.6023 44.5453 32.0596 44.78C31.5243 45.0147 30.9193 45.132 30.2446 45.132Z" fill="white"/>
</svg>
