<svg width="13" height="13" viewBox="0 0 13 13" fill="none" xmlns="http://www.w3.org/2000/svg">
<path fill-rule="evenodd" clip-rule="evenodd" d="M9.22002 12.0636C8.39336 12.3462 7.49469 12.4876 6.52402 12.4876C5.61736 12.4876 4.78536 12.3409 4.02802 12.0476C3.27069 11.7542 2.62002 11.3462 2.07602 10.8236C1.53202 10.3009 1.10802 9.67422 0.804022 8.94356C0.500022 8.21289 0.348022 7.41556 0.348022 6.55156C0.348022 5.69822 0.510689 4.90889 0.836022 4.18356C1.16136 3.45822 1.60136 2.82889 2.15602 2.29556C2.71069 1.76222 3.36136 1.34356 4.10802 1.03956C4.85469 0.735557 5.65469 0.583557 6.50802 0.583557C7.25469 0.583557 7.97736 0.69289 8.67602 0.911557C9.37469 1.13022 9.98802 1.45822 10.516 1.89556C11.044 2.33289 11.468 2.87422 11.788 3.51956C12.108 4.16489 12.268 4.91956 12.268 5.78356C12.268 6.39156 12.1854 6.93556 12.02 7.41556C11.8547 7.89556 11.6227 8.30089 11.324 8.63156C11.0254 8.96222 10.676 9.21289 10.276 9.38356C9.87602 9.55422 9.44669 9.63956 8.98802 9.63956C8.56136 9.63956 8.21202 9.54622 7.94002 9.35956C7.66802 9.17289 7.51069 8.92489 7.46802 8.61556H7.40402C7.25469 8.86089 7.02002 9.09289 6.70002 9.31156C6.38002 9.53022 5.98002 9.63956 5.50002 9.63956C5.13736 9.63956 4.81469 9.57289 4.53202 9.43956C4.24936 9.30622 4.00936 9.11956 3.81202 8.87956C3.61469 8.63956 3.46269 8.35422 3.35602 8.02356C3.24936 7.69289 3.19602 7.33022 3.19602 6.93556C3.19602 6.48756 3.26802 6.04756 3.41202 5.61556C3.55602 5.18356 3.76402 4.79956 4.03602 4.46356C4.30802 4.12756 4.63069 3.85556 5.00402 3.64756C5.37736 3.43956 5.79869 3.33556 6.26802 3.33556C6.67336 3.33556 7.00936 3.42089 7.27602 3.59156C7.54269 3.76222 7.71336 3.96489 7.78802 4.19956H7.80402L7.91602 3.65556H9.64402L9.14802 6.16756C9.09469 6.42356 9.04669 6.66889 9.00402 6.90356C8.96136 7.13822 8.94002 7.33556 8.94002 7.49556C8.94002 7.64489 8.97202 7.77822 9.03602 7.89556C9.10002 8.01289 9.22269 8.07156 9.40402 8.07156C9.72402 8.07156 10.0094 7.88756 10.26 7.51956C10.5107 7.15156 10.636 6.59422 10.636 5.84756C10.636 5.22889 10.5347 4.68222 10.332 4.20756C10.1294 3.73289 9.84402 3.33556 9.47602 3.01556C9.10802 2.69556 8.67069 2.45289 8.16402 2.28756C7.65736 2.12222 7.10002 2.03956 6.49202 2.03956C5.84136 2.03956 5.24669 2.15422 4.70802 2.38356C4.16936 2.61289 3.70802 2.92756 3.32402 3.32756C2.94002 3.72756 2.64136 4.20489 2.42802 4.75956C2.21469 5.31422 2.10802 5.91156 2.10802 6.55156C2.10802 7.23422 2.22002 7.84756 2.44402 8.39156C2.66802 8.93556 2.98536 9.39956 3.39602 9.78356C3.80669 10.1676 4.29202 10.4636 4.85202 10.6716C5.41202 10.8796 6.02802 10.9836 6.70002 10.9836C7.46802 10.9836 8.15336 10.8636 8.75602 10.6236C9.35869 10.3836 9.90002 10.0449 10.38 9.60756L11.388 10.7276C10.7694 11.3356 10.0467 11.7809 9.22002 12.0636ZM5.28402 7.69556C5.40669 7.93556 5.63869 8.05556 5.98002 8.05556C6.21469 8.05556 6.41736 7.99422 6.58802 7.87156C6.75869 7.74889 6.89736 7.59156 7.00402 7.39956C7.11069 7.20756 7.19069 6.99956 7.24402 6.77556C7.29736 6.55156 7.32402 6.33822 7.32402 6.13556C7.32402 5.97556 7.31069 5.82089 7.28402 5.67156C7.25736 5.52222 7.21202 5.38889 7.14802 5.27156C7.08402 5.15422 6.99336 5.06089 6.87602 4.99156C6.75869 4.92222 6.60936 4.88756 6.42802 4.88756C6.22536 4.88756 6.04402 4.94889 5.88402 5.07156C5.72402 5.19422 5.58536 5.35422 5.46802 5.55156C5.35069 5.74889 5.26002 5.97022 5.19602 6.21556C5.13202 6.46089 5.10002 6.70089 5.10002 6.93556C5.10002 7.20222 5.16136 7.45556 5.28402 7.69556Z" fill="#A181DC"/>
</svg>
