<svg width="175" height="84" viewBox="0 0 175 84" fill="none" xmlns="http://www.w3.org/2000/svg">
<path fill-rule="evenodd" clip-rule="evenodd" d="M8 4C8 1.79086 9.79086 0 12 0H39.1982L55 15.7046V59C55 61.2091 53.2091 63 51 63H12C9.79086 63 8 61.2091 8 59V4Z" fill="#E8EAEC"/>
<rect y="30" width="47" height="23" rx="2" fill="#5399F6"/>
<path fill-rule="evenodd" clip-rule="evenodd" d="M39.1982 0V10.3247C39.1982 13.0861 41.4368 15.3247 44.1982 15.3247H55L39.1982 0Z" fill="#BEC4C9"/>
<path fill-rule="evenodd" clip-rule="evenodd" d="M19.862 45.209C20.4707 45.209 21.0353 45.11 21.556 44.912C22.0767 44.714 22.5258 44.4335 22.9035 44.0705C23.2812 43.7075 23.5763 43.2712 23.789 42.7615C24.0017 42.2518 24.108 41.689 24.108 41.073C24.108 40.4497 24.0017 39.8868 23.789 39.3845C23.5763 38.8822 23.2812 38.455 22.9035 38.103C22.5258 37.751 22.0767 37.4797 21.556 37.289C21.0353 37.0983 20.4707 37.003 19.862 37.003C19.2533 37.003 18.6905 37.0983 18.1735 37.289C17.6565 37.4797 17.2092 37.751 16.8315 38.103C16.4538 38.455 16.1587 38.8822 15.946 39.3845C15.7333 39.8868 15.627 40.4497 15.627 41.073C15.627 41.689 15.7333 42.2518 15.946 42.7615C16.1587 43.2712 16.4538 43.7075 16.8315 44.0705C17.2092 44.4335 17.6565 44.714 18.1735 44.912C18.6905 45.11 19.2533 45.209 19.862 45.209ZM8.081 45L9.621 39.731H9.654L11.194 45H13.053L15.275 37.212H13.317L12.063 42.393H12.03L10.633 37.212H8.675L7.289 42.393H7.256L6.024 37.212H4L6.211 45H8.081ZM18.96 43.3115C19.2313 43.4325 19.532 43.493 19.862 43.493C20.192 43.493 20.4927 43.4325 20.764 43.3115C21.0353 43.1905 21.27 43.0237 21.468 42.811C21.666 42.5983 21.82 42.3435 21.93 42.0465C22.04 41.7495 22.095 41.425 22.095 41.073C22.095 40.7357 22.04 40.4203 21.93 40.127C21.82 39.8337 21.6678 39.5825 21.4735 39.3735C21.2792 39.1645 21.0445 38.9995 20.7695 38.8785C20.4945 38.7575 20.192 38.697 19.862 38.697C19.532 38.697 19.2313 38.7575 18.96 38.8785C18.6887 38.9995 18.454 39.1645 18.256 39.3735C18.058 39.5825 17.9058 39.8337 17.7995 40.127C17.6932 40.4203 17.64 40.7357 17.64 41.073C17.64 41.425 17.695 41.7495 17.805 42.0465C17.915 42.3435 18.0672 42.5983 18.2615 42.811C18.4558 43.0237 18.6887 43.1905 18.96 43.3115ZM27.243 45V41.909H27.881L29.564 45H31.764L29.729 41.667C30.235 41.513 30.631 41.2563 30.917 40.897C31.203 40.5377 31.346 40.094 31.346 39.566C31.346 39.1187 31.2617 38.7447 31.093 38.444C30.9243 38.1433 30.6988 37.9013 30.4165 37.718C30.1342 37.5347 29.8152 37.4045 29.4595 37.3275C29.1038 37.2505 28.739 37.212 28.365 37.212H25.395V45H27.243ZM27.232 40.545H28.123C28.277 40.545 28.4347 40.5322 28.596 40.5065C28.7573 40.4808 28.904 40.435 29.036 40.369C29.168 40.303 29.2762 40.2077 29.3605 40.083C29.4448 39.9583 29.487 39.797 29.487 39.599C29.487 39.4157 29.4485 39.2672 29.3715 39.1535C29.2945 39.0398 29.1955 38.9518 29.0745 38.8895C28.9535 38.8272 28.8178 38.785 28.6675 38.763C28.5172 38.741 28.3723 38.73 28.233 38.73H27.232V40.545ZM35.636 45C36.1713 45 36.6993 44.9248 37.22 44.7745C37.7407 44.6242 38.2082 44.3895 38.6225 44.0705C39.0368 43.7515 39.3705 43.3445 39.6235 42.8495C39.8765 42.3545 40.003 41.766 40.003 41.084C40.003 40.3507 39.8747 39.7347 39.618 39.236C39.3613 38.7373 39.024 38.3395 38.606 38.0425C38.188 37.7455 37.7113 37.5328 37.176 37.4045C36.6407 37.2762 36.098 37.212 35.548 37.212H32.732V45H35.636ZM34.569 43.372H35.46C35.7973 43.372 36.1218 43.3335 36.4335 43.2565C36.7452 43.1795 37.0202 43.053 37.2585 42.877C37.4968 42.701 37.6875 42.4663 37.8305 42.173C37.9735 41.8797 38.045 41.5167 38.045 41.084C38.045 40.644 37.9735 40.2792 37.8305 39.9895C37.6875 39.6998 37.4968 39.4688 37.2585 39.2965C37.0202 39.1242 36.7488 39.0013 36.4445 38.928C36.1402 38.8547 35.8267 38.818 35.504 38.818H34.569V43.372Z" fill="white"/>
<path fill-rule="evenodd" clip-rule="evenodd" d="M48 11C48 8.79086 49.7909 7 52 7H79.1982L95 22.7046V66C95 68.2091 93.2091 70 91 70H52C49.7909 70 48 68.2091 48 66V11Z" fill="#E8EAEC"/>
<rect x="40" y="37" width="47" height="23" rx="2" fill="#F66D53"/>
<path fill-rule="evenodd" clip-rule="evenodd" d="M79.1982 7V17.3247C79.1982 20.0861 81.4368 22.3247 84.1982 22.3247H95L79.1982 7Z" fill="#BEC4C9"/>
<path fill-rule="evenodd" clip-rule="evenodd" d="M54.6842 53V50.063H55.6192C56.0226 50.063 56.4112 50.019 56.7852 49.931C57.1592 49.843 57.4892 49.7037 57.7752 49.513C58.0612 49.3223 58.2886 49.0712 58.4572 48.7595C58.6259 48.4478 58.7102 48.0647 58.7102 47.61C58.7102 47.1627 58.6314 46.7868 58.4737 46.4825C58.3161 46.1782 58.0997 45.9325 57.8247 45.7455C57.5497 45.5585 57.2271 45.4228 56.8567 45.3385C56.4864 45.2542 56.0886 45.212 55.6632 45.212H52.8032V53H54.6842ZM55.4762 48.567H54.6842V46.73H55.5092C55.6779 46.73 55.8411 46.741 55.9987 46.763C56.1564 46.785 56.2976 46.829 56.4222 46.895C56.5469 46.961 56.6459 47.0527 56.7192 47.17C56.7926 47.2873 56.8292 47.4377 56.8292 47.621C56.8292 47.8043 56.7926 47.9565 56.7192 48.0775C56.6459 48.1985 56.5451 48.2957 56.4167 48.369C56.2884 48.4423 56.1436 48.4937 55.9822 48.523C55.8209 48.5523 55.6522 48.567 55.4762 48.567ZM64.3752 52.7745C63.8546 52.9248 63.3266 53 62.7912 53H59.8872V45.212H62.7032C63.2532 45.212 63.7959 45.2762 64.3312 45.4045C64.8666 45.5328 65.3432 45.7455 65.7612 46.0425C66.1792 46.3395 66.5166 46.7373 66.7732 47.236C67.0299 47.7347 67.1582 48.3507 67.1582 49.084C67.1582 49.766 67.0317 50.3545 66.7787 50.8495C66.5257 51.3445 66.1921 51.7515 65.7777 52.0705C65.3634 52.3895 64.8959 52.6242 64.3752 52.7745ZM62.6152 51.372H61.7242V46.818H62.6592C62.9819 46.818 63.2954 46.8547 63.5997 46.928C63.9041 47.0013 64.1754 47.1242 64.4137 47.2965C64.6521 47.4688 64.8427 47.6998 64.9857 47.9895C65.1287 48.2792 65.2002 48.644 65.2002 49.084C65.2002 49.5167 65.1287 49.8797 64.9857 50.173C64.8427 50.4663 64.6521 50.701 64.4137 50.877C64.1754 51.053 63.9004 51.1795 63.5887 51.2565C63.2771 51.3335 62.9526 51.372 62.6152 51.372ZM70.3042 49.975V53H68.4452V45.212H73.5712V46.818H70.3042V48.424H73.3182V49.975H70.3042Z" fill="white"/>
<path fill-rule="evenodd" clip-rule="evenodd" d="M86 18C86 15.7909 87.7909 14 90 14H117.198L133 29.7046V73C133 75.2091 131.209 77 129 77H90C87.7909 77 86 75.2091 86 73V18Z" fill="#E8EAEC"/>
<rect x="78" y="44" width="47" height="23" rx="2" fill="#3FA451"/>
<path fill-rule="evenodd" clip-rule="evenodd" d="M117.198 14V24.3247C117.198 27.0861 119.437 29.3247 122.198 29.3247H133L117.198 14Z" fill="#BEC4C9"/>
<path fill-rule="evenodd" clip-rule="evenodd" d="M93.2372 57.394V59H87.8032V51.212H93.0392V52.807H89.6182V54.27H92.8522V55.777H89.6182V57.394H93.2372ZM97.5162 56.25L95.8772 59H93.6332L96.3612 54.886L93.8532 51.212H96.1192L97.5712 53.632L99.0012 51.212H101.19L98.7262 54.886L101.542 59H99.2212L97.5162 56.25ZM107.735 59V57.394H104.116V55.777H107.35V54.27H104.116V52.807H107.537V51.212H102.301V59H107.735ZM113.928 57.361V59H109.022V51.212H110.914V57.361H113.928Z" fill="white"/>
<path fill-rule="evenodd" clip-rule="evenodd" d="M128 25C128 22.7909 129.791 21 132 21H159.198L175 36.7046V80C175 82.2091 173.209 84 171 84H132C129.791 84 128 82.2091 128 80V25Z" fill="#E8EAEC"/>
<rect x="120" y="51" width="47" height="23" rx="2" fill="#A5837C"/>
<path fill-rule="evenodd" clip-rule="evenodd" d="M159.198 21V31.3247C159.198 34.0861 161.437 36.3247 164.198 36.3247H175L159.198 21Z" fill="#BEC4C9"/>
<path fill-rule="evenodd" clip-rule="evenodd" d="M150.863 66.476C150.306 66.7304 149.664 66.8576 148.937 66.8576C148.275 66.8576 147.663 66.7486 147.102 66.5305C146.541 66.3125 146.055 66.0037 145.643 65.604C145.231 65.2043 144.908 64.7258 144.674 64.1687C144.44 63.6115 144.322 62.9979 144.322 62.3277C144.322 61.6413 144.442 61.0196 144.68 60.4624C144.918 59.9053 145.247 59.4309 145.667 59.0392C146.087 58.6476 146.579 58.3468 147.145 58.1369C147.71 57.927 148.319 57.822 148.974 57.822C149.579 57.822 150.175 57.929 150.76 58.143C151.345 58.3569 151.82 58.6698 152.183 59.0816L150.778 60.4866C150.584 60.2202 150.33 60.0223 150.015 59.8931C149.7 59.764 149.377 59.6994 149.046 59.6994C148.683 59.6994 148.35 59.766 148.047 59.8992C147.744 60.0324 147.484 60.2161 147.266 60.4503C147.048 60.6845 146.878 60.961 146.757 61.28C146.636 61.5989 146.575 61.9482 146.575 62.3277C146.575 62.7152 146.636 63.0705 146.757 63.3935C146.878 63.7165 147.046 63.9931 147.26 64.2232C147.474 64.4533 147.73 64.633 148.029 64.7622C148.328 64.8914 148.655 64.956 149.01 64.956C149.422 64.956 149.781 64.8752 150.088 64.7137C150.395 64.5522 150.641 64.3423 150.827 64.0839L152.268 65.4405C151.888 65.8765 151.42 66.2217 150.863 66.476ZM135.093 63.3935V66.6274H133.022V58.0521H136.171C136.639 58.0521 137.077 58.0985 137.485 58.1914C137.893 58.2843 138.248 58.4336 138.551 58.6396C138.854 58.8455 139.092 59.116 139.266 59.4511C139.439 59.7862 139.526 60.2 139.526 60.6925C139.526 61.1932 139.433 61.6151 139.248 61.9582C139.062 62.3014 138.812 62.578 138.497 62.7879C138.182 62.9979 137.818 63.1513 137.407 63.2482C136.995 63.3451 136.567 63.3935 136.123 63.3935H135.093ZM135.093 61.7463H135.965C136.159 61.7463 136.345 61.7301 136.522 61.6978C136.7 61.6655 136.859 61.609 137.001 61.5283C137.142 61.4475 137.253 61.3405 137.334 61.2073C137.415 61.0741 137.455 60.9065 137.455 60.7047C137.455 60.5028 137.415 60.3373 137.334 60.2081C137.253 60.0789 137.144 59.9779 137.007 59.9053C136.87 59.8326 136.714 59.7841 136.541 59.7599C136.367 59.7357 136.187 59.7236 136.002 59.7236H135.093V61.7463ZM142.905 66.6274V58.0521H140.822V66.6274H142.905Z" fill="white"/>
</svg>
