<svg width="71" height="67" viewBox="0 0 71 67" fill="none" xmlns="http://www.w3.org/2000/svg">
<path d="M0 65.9771H58.7744" stroke="#A181DC" stroke-width="2"/>
<path d="M50.8047 37.2344V16.0801L31.0913 2L31.0913 19.249L49.0161 28.4048" stroke="#A181DC" stroke-width="2"/>
<path d="M34.666 25.8188L22.3843 19.4644L6.25635 26.1545L6.25635 65.9771" stroke="#A181DC" stroke-width="2"/>
<path d="M31.0913 13.2964L22.3125 15.9941V5.09277L31.0913 1" stroke="#A181DC" stroke-width="2"/>
<path d="M22.3125 11.0225L31.0913 7.80322L50.8047 20.3706" stroke="#A181DC" stroke-width="2"/>
<path d="M50.8047 25.2017L31.0913 13.2964" stroke="#A181DC" stroke-width="2"/>
<path d="M6.25635 61.2739L22.3125 59.395L35.0283 59.9875" stroke="#A181DC" stroke-width="2"/>
<path d="M34.666 54.5247L22.3125 52.8965L6.25635 54.5247" stroke="#A181DC" stroke-width="2"/>
<path d="M6.25635 49.2429L22.3125 45.9651L34.666 49.2429" stroke="#A181DC" stroke-width="2"/>
<path d="M6.25635 44.3389L22.3125 38.9885L34.666 43.7283" stroke="#A181DC" stroke-width="2"/>
<path d="M6.25635 37.7593L22.3125 32.4224L34.666 37.7593" stroke="#A181DC" stroke-width="2"/>
<path d="M6.25635 32.7793L22.3125 25.9153L34.666 31.4856" stroke="#A181DC" stroke-width="2"/>
<path d="M50.8047 60.3345H36.5586" stroke="#A181DC" stroke-width="2"/>
<path d="M48.1018 55.5973L36.5586 54.0808" stroke="#A181DC" stroke-width="2"/>
<path d="M45.2096 49.956L36.5586 48.4788" stroke="#A181DC" stroke-width="2"/>
<path d="M45.1191 45.2824L36.5586 43.3103" stroke="#A181DC" stroke-width="2"/>
<path d="M46.9141 41L36.5586 37.2344" stroke="#A181DC" stroke-width="2"/>
<path d="M50.0649 37.2344L36.5586 31.6401" stroke="#A181DC" stroke-width="2"/>
<path d="M50.8047 33.2886L36.5586 26.2744" stroke="#A181DC" stroke-width="2"/>
<circle cx="57.5" cy="47.5" r="12.5" stroke="#A181DC" stroke-width="2"/>
<path d="M62.0962 42.9038L53.0814 51.9186" stroke="#A181DC" stroke-width="2"/>
<path d="M53.0813 42.9038L62.0962 51.9186" stroke="#A181DC" stroke-width="2"/>
<path d="M50.8047 65.9771V58.1006" stroke="#A181DC" stroke-width="2"/>
</svg>
