<svg width="55" height="63" viewBox="0 0 55 63" fill="none" xmlns="http://www.w3.org/2000/svg">
<path fill-rule="evenodd" clip-rule="evenodd" d="M8 4C8 1.79086 9.79086 0 12 0H39.1982L55 15.7046V59C55 61.2091 53.2091 63 51 63H12C9.79086 63 8 61.2091 8 59V4Z" fill="#E8EAEC"/>
<rect y="30" width="47" height="23" rx="2" fill="#3FA451"/>
<path fill-rule="evenodd" clip-rule="evenodd" d="M39.1982 0V10.3247C39.1982 13.0861 41.4368 15.3247 44.1982 15.3247H55L39.1982 0Z" fill="#BEC4C9"/>
<path d="M11.552 39.402H15.259V40.788H11.552V39.402ZM11.684 42.57H15.875V44H9.913V36.3H15.732V37.73H11.684V42.57ZM16.3817 44L19.6927 39.435V40.733L16.5247 36.3H18.5487L20.7377 39.391L19.8907 39.402L22.0467 36.3H23.9827L20.8367 40.656V39.38L24.1697 44H22.1127L19.8467 40.733H20.6607L18.4277 44H16.3817ZM26.5502 39.402H30.2572V40.788H26.5502V39.402ZM26.6822 42.57H30.8732V44H24.9112V36.3H30.7302V37.73H26.6822V42.57ZM32.335 44V36.3H34.117V42.548H37.978V44H32.335Z" fill="white"/>
</svg>
