<svg width="49" height="13" viewBox="0 0 49 13" fill="none" xmlns="http://www.w3.org/2000/svg">
<path d="M5.008 12.192C4.112 12.192 3.25333 12.0747 2.432 11.84C1.61067 11.5947 0.949333 11.28 0.448 10.896L1.328 8.944C1.808 9.28533 2.37333 9.568 3.024 9.792C3.68533 10.0053 4.352 10.112 5.024 10.112C5.536 10.112 5.94667 10.064 6.256 9.968C6.576 9.86133 6.81067 9.71733 6.96 9.536C7.10933 9.35467 7.184 9.14667 7.184 8.912C7.184 8.61333 7.06667 8.37867 6.832 8.208C6.59733 8.02667 6.288 7.88267 5.904 7.776C5.52 7.65867 5.09333 7.552 4.624 7.456C4.16533 7.34933 3.70133 7.22133 3.232 7.072C2.77333 6.92267 2.352 6.73067 1.968 6.496C1.584 6.26133 1.26933 5.952 1.024 5.568C0.789333 5.184 0.672 4.69333 0.672 4.096C0.672 3.456 0.842667 2.87467 1.184 2.352C1.536 1.81867 2.05867 1.39733 2.752 1.088C3.456 0.768 4.336 0.608 5.392 0.608C6.096 0.608 6.78933 0.693333 7.472 0.863999C8.15467 1.024 8.75733 1.26933 9.28 1.6L8.48 3.568C7.95733 3.26933 7.43467 3.05067 6.912 2.912C6.38933 2.76267 5.87733 2.688 5.376 2.688C4.87467 2.688 4.464 2.74667 4.144 2.864C3.824 2.98133 3.59467 3.136 3.456 3.328C3.31733 3.50933 3.248 3.72267 3.248 3.968C3.248 4.256 3.36533 4.49067 3.6 4.672C3.83467 4.84267 4.144 4.98133 4.528 5.088C4.912 5.19467 5.33333 5.30133 5.792 5.408C6.26133 5.51467 6.72533 5.63733 7.184 5.776C7.65333 5.91467 8.08 6.10133 8.464 6.336C8.848 6.57067 9.15733 6.88 9.392 7.264C9.63733 7.648 9.76 8.13333 9.76 8.72C9.76 9.34933 9.584 9.92533 9.232 10.448C8.88 10.9707 8.352 11.392 7.648 11.712C6.95467 12.032 6.07467 12.192 5.008 12.192ZM10.1231 12L15.1151 0.799999H17.6751L22.6831 12H19.9631L15.8671 2.112H16.8911L12.7791 12H10.1231ZM12.6191 9.6L13.3071 7.632H19.0671L19.7711 9.6H12.6191ZM31.5891 0.799999H34.1811V12H31.5891V0.799999ZM26.5011 12H23.9091V0.799999H26.5011V12ZM31.7811 7.408H26.3091V5.216H31.7811V7.408ZM42.335 12.192C41.4497 12.192 40.6283 12.048 39.871 11.76C39.1243 11.472 38.4737 11.0667 37.919 10.544C37.375 10.0213 36.9483 9.408 36.639 8.704C36.3403 8 36.191 7.232 36.191 6.4C36.191 5.568 36.3403 4.8 36.639 4.096C36.9483 3.392 37.3803 2.77867 37.935 2.256C38.4897 1.73333 39.1403 1.328 39.887 1.04C40.6337 0.752 41.4443 0.608 42.319 0.608C43.2043 0.608 44.015 0.752 44.751 1.04C45.4977 1.328 46.143 1.73333 46.687 2.256C47.2417 2.77867 47.6737 3.392 47.983 4.096C48.2923 4.78933 48.447 5.55733 48.447 6.4C48.447 7.232 48.2923 8.00533 47.983 8.72C47.6737 9.424 47.2417 10.0373 46.687 10.56C46.143 11.072 45.4977 11.472 44.751 11.76C44.015 12.048 43.2097 12.192 42.335 12.192ZM42.319 9.984C42.8203 9.984 43.279 9.89867 43.695 9.728C44.1217 9.55733 44.495 9.312 44.815 8.992C45.135 8.672 45.3803 8.29333 45.551 7.856C45.7323 7.41867 45.823 6.93333 45.823 6.4C45.823 5.86667 45.7323 5.38133 45.551 4.944C45.3803 4.50667 45.135 4.128 44.815 3.808C44.5057 3.488 44.1377 3.24267 43.711 3.072C43.2843 2.90133 42.8203 2.816 42.319 2.816C41.8177 2.816 41.3537 2.90133 40.927 3.072C40.511 3.24267 40.143 3.488 39.823 3.808C39.503 4.128 39.2523 4.50667 39.071 4.944C38.9003 5.38133 38.815 5.86667 38.815 6.4C38.815 6.92267 38.9003 7.408 39.071 7.856C39.2523 8.29333 39.4977 8.672 39.807 8.992C40.127 9.312 40.5003 9.55733 40.927 9.728C41.3537 9.89867 41.8177 9.984 42.319 9.984Z" fill="white"/>
</svg>
