<svg width="20" height="13" viewBox="0 0 20 13" fill="none" xmlns="http://www.w3.org/2000/svg">
<path fill-rule="evenodd" clip-rule="evenodd" d="M1.92092 1.71737C2.76156 0.85872 4.14372 0.858719 4.98436 1.71737L11.4126 8.28337C12.2284 9.11666 12.2284 10.4492 11.4126 11.2825C10.572 12.1412 9.1898 12.1412 8.34916 11.2825L1.92091 4.71655C1.1051 3.88325 1.10511 2.55067 1.92092 1.71737Z" fill="#DD8282"/>
<path fill-rule="evenodd" clip-rule="evenodd" d="M18.0791 1.71737C17.2384 0.85872 15.8563 0.858719 15.0156 1.71737L8.5874 8.28337C7.77159 9.11666 7.77159 10.4492 8.5874 11.2825C9.42804 12.1412 10.8102 12.1412 11.6508 11.2825L18.0791 4.71655C18.8949 3.88325 18.8949 2.55067 18.0791 1.71737Z" fill="#DD8282"/>
</svg>
